ffmpeg started on 2026-01-16 at 16:19:13
Report written to "D:\Convert\FFMetrics\reports\ssim_report-6.txt"
Log level: 32
Command line:
ffmpeg -hide_banner -nostdin -r 24000/1001 -i "F:\\Convert\\files\\[DC] Make Heroine ga Oosugiru - 07_Telegram_HEVC(HB-13).mkv" -r 24000/1001 -i "F:\\Convert\\files\\[DC] Make Heroine ga Oosugiru - 07_Telegram.mp4" -lavfi "[0:v]settb=AVTB,setpts=PTS-STARTPTS,format=pix_fmts=yuv420p10le,fps=24000/1001,scale=1920:1080:flags=lanczos:param0=3:out_range=limited:out_color_matrix=bt709:out_chroma_loc=left,setsar=1/1,setdar=(1920/1080)*(1/1),colorspace=format=yuv420p10:range=tv:primaries=bt709:trc=bt709:space=bt709:fast=0[main];[1:v]settb=AVTB,setpts=PTS-STARTPTS,format=pix_fmts=yuv420p,fps=24000/1001,scale=1920:1080:flags=lanczos:param0=3:out_range=limited:out_color_matrix=bt709:out_chroma_loc=left,setsar=1.000,setdar=1.778,colorspace=format=yuv420p:range=tv:primaries=bt709:trc=bt709:space=bt709:fast=0[ref];[main][ref]ssim=eof_action=endall:stats_file='D\\:/Convert/FFMetrics/logs/ssim_logfile-6.txt'" -f null -
Input #0, matroska,webm, from 'F:\Convert\files\[DC] Make Heroine ga Oosugiru - 07_Telegram_HEVC(HB-13).mkv':
  Metadata:
    creation_time   : 2026-01-16T10:06:13.000000Z
    ENCODER         : Lavf61.7.100
  Duration: 00:24:06.81, start: -0.021000, bitrate: 1004 kb/s
  Stream #0:0: Video: hevc (Main 10), yuv420p10le(tv, bt709), 1920x1080 [SAR 1:1 DAR 16:9], 23.98 fps, 23.98 tbr, 1k tbn (default)
      Metadata:
        BPS             : 838905
        DURATION        : 00:24:06.569708333
        NUMBER_OF_FRAMES: 34683
        NUMBER_OF_BYTES : 151691849
        _STATISTICS_WRITING_APP: mkvpropedit v94.0 ('Initiate') 64-bit
        _STATISTICS_WRITING_DATE_UTC: 2026-01-16 13:17:37
        _STATISTICS_TAGS: BPS DURATION NUMBER_OF_FRAMES NUMBER_OF_BYTES
  Stream #0:1: Audio: aac (LC), 48000 Hz, stereo, fltp (default)
      Metadata:
        title           : Stereo
        BPS             : 161191
        DURATION        : 00:24:06.784000000
        NUMBER_OF_FRAMES: 67819
        NUMBER_OF_BYTES : 29151109
        _STATISTICS_WRITING_APP: mkvpropedit v94.0 ('Initiate') 64-bit
        _STATISTICS_WRITING_DATE_UTC: 2026-01-16 13:17:37
        _STATISTICS_TAGS: BPS DURATION NUMBER_OF_FRAMES NUMBER_OF_BYTES
Input #1, mov,mp4,m4a,3gp,3g2,mj2, from 'F:\Convert\files\[DC] Make Heroine ga Oosugiru - 07_Telegram.mp4':
  Metadata:
    major_brand     : isom
    minor_version   : 512
    compatible_brands: isomiso2avc1mp41
    encoder         : Lavf60.16.100
  Duration: 00:24:06.74, start: 0.000000, bitrate: 3764 kb/s
  Stream #1:0[0x1](und): Video: h264 (High) (avc1 / 0x31637661), yuv420p(tv, bt709, progressive), 1920x1080 [SAR 1:1 DAR 16:9], 3616 kb/s, 23.98 fps, 23.98 tbr, 24k tbn (default)
      Metadata:
        handler_name    : VideoHandler
        vendor_id       : [0][0][0][0]
        encoder         : Lavc60.31.102 h264_qsv
  Stream #1:1[0x2](und): Audio: aac (HE-AACv2) (mp4a / 0x6134706D), 48000 Hz, stereo, fltp, 144 kb/s (default)
      Metadata:
        handler_name    : SoundHandler
        vendor_id       : [0][0][0][0]
Stream mapping:
  Stream #0:0 (hevc) -> settb:default
  Stream #1:0 (h264) -> settb:default
  ssim:default -> Stream #0:0 (wrapped_avframe)
  Stream #0:1 -> #0:1 (aac (native) -> pcm_s16le (native))
Output #0, null, to 'pipe:':
  Metadata:
    encoder         : Lavf61.7.100
  Stream #0:0: Video: wrapped_avframe, yuv420p10le(tv, bt709, progressive), 1920x1080 [SAR 1:1 DAR 16:9], q=2-31, 200 kb/s, 23.98 fps, 23.98 tbn
      Metadata:
        encoder         : Lavc61.19.100 wrapped_avframe
  Stream #0:1: Audio: pcm_s16le, 48000 Hz, stereo, s16, 1536 kb/s (default)
      Metadata:
        title           : Stereo
        BPS             : 161191
        DURATION        : 00:24:06.784000000
        NUMBER_OF_FRAMES: 67819
        NUMBER_OF_BYTES : 29151109
        _STATISTICS_WRITING_APP: mkvpropedit v94.0 ('Initiate') 64-bit
        _STATISTICS_WRITING_DATE_UTC: 2026-01-16 13:17:37
        _STATISTICS_TAGS: BPS DURATION NUMBER_OF_FRAMES NUMBER_OF_BYTES
        encoder         : Lavc61.19.100 pcm_s16le
frame=  123 fps=0.0 q=-0.0 size=N/A time=00:00:05.13 bitrate=N/A speed=9.85x    frame=  313 fps=300 q=-0.0 size=N/A time=00:00:13.05 bitrate=N/A speed=12.5x    frame=  507 fps=326 q=-0.0 size=N/A time=00:00:21.14 bitrate=N/A speed=13.6x    frame=  697 fps=337 q=-0.0 size=N/A time=00:00:29.07 bitrate=N/A speed=14.1x    frame=  880 fps=341 q=-0.0 size=N/A time=00:00:36.70 bitrate=N/A speed=14.2x    frame= 1017 fps=327 q=-0.0 size=N/A time=00:00:42.41 bitrate=N/A speed=13.7x    frame= 1182 fps=327 q=-0.0 size=N/A time=00:00:49.29 bitrate=N/A speed=13.6x    frame= 1347 fps=326 q=-0.0 size=N/A time=00:00:56.18 bitrate=N/A speed=13.6x    frame= 1513 fps=326 q=-0.0 size=N/A time=00:01:03.10 bitrate=N/A speed=13.6x    frame= 1661 fps=321 q=-0.0 size=N/A time=00:01:09.27 bitrate=N/A speed=13.4x    frame= 1822 fps=321 q=-0.0 size=N/A time=00:01:15.99 bitrate=N/A speed=13.4x    frame= 1982 fps=320 q=-0.0 size=N/A time=00:01:22.66 bitrate=N/A speed=13.4x    frame= 2099 fps=313 q=-0.0 size=N/A time=00:01:27.54 bitrate=N/A speed=13.1x    frame= 2261 fps=313 q=-0.0 size=N/A time=00:01:34.30 bitrate=N/A speed=  13x    frame= 2408 fps=311 q=-0.0 size=N/A time=00:01:40.43 bitrate=N/A speed=  13x    frame= 2544 fps=308 q=-0.0 size=N/A time=00:01:46.10 bitrate=N/A speed=12.9x    frame= 2706 fps=309 q=-0.0 size=N/A time=00:01:52.86 bitrate=N/A speed=12.9x    frame= 2887 fps=311 q=-0.0 size=N/A time=00:02:00.41 bitrate=N/A speed=  13x    frame= 3062 fps=312 q=-0.0 size=N/A time=00:02:07.71 bitrate=N/A speed=  13x    frame= 3253 fps=315 q=-0.0 size=N/A time=00:02:15.67 bitrate=N/A speed=13.2x    frame= 3443 fps=318 q=-0.0 size=N/A time=00:02:23.60 bitrate=N/A speed=13.3x    frame= 3639 fps=320 q=-0.0 size=N/A time=00:02:31.77 bitrate=N/A speed=13.4x    frame= 3831 fps=323 q=-0.0 size=N/A time=00:02:39.78 bitrate=N/A speed=13.5x    frame= 4019 fps=325 q=-0.0 size=N/A time=00:02:47.62 bitrate=N/A speed=13.5x    frame= 4210 fps=327 q=-0.0 size=N/A time=00:02:55.59 bitrate=N/A speed=13.6x    frame= 4399 fps=328 q=-0.0 size=N/A time=00:03:03.47 bitrate=N/A speed=13.7x    frame= 4591 fps=330 q=-0.0 size=N/A time=00:03:11.48 bitrate=N/A speed=13.7x    frame= 4779 fps=331 q=-0.0 size=N/A time=00:03:19.32 bitrate=N/A speed=13.8x    frame= 4970 fps=332 q=-0.0 size=N/A time=00:03:27.29 bitrate=N/A speed=13.9x    frame= 5167 fps=334 q=-0.0 size=N/A time=00:03:35.50 bitrate=N/A speed=13.9x    frame= 5351 fps=335 q=-0.0 size=N/A time=00:03:43.18 bitrate=N/A speed=  14x    frame= 5537 fps=336 q=-0.0 size=N/A time=00:03:50.93 bitrate=N/A speed=  14x    frame= 5727 fps=337 q=-0.0 size=N/A time=00:03:58.86 bitrate=N/A speed=  14x    frame= 5926 fps=338 q=-0.0 size=N/A time=00:04:07.16 bitrate=N/A speed=14.1x    frame= 6112 fps=339 q=-0.0 size=N/A time=00:04:14.92 bitrate=N/A speed=14.1x    frame= 6298 fps=339 q=-0.0 size=N/A time=00:04:22.67 bitrate=N/A speed=14.1x    frame= 6497 fps=340 q=-0.0 size=N/A time=00:04:30.97 bitrate=N/A speed=14.2x    frame= 6692 fps=341 q=-0.0 size=N/A time=00:04:39.11 bitrate=N/A speed=14.2x    frame= 6880 fps=342 q=-0.0 size=N/A time=00:04:46.95 bitrate=N/A speed=14.3x    frame= 7068 fps=342 q=-0.0 size=N/A time=00:04:54.79 bitrate=N/A speed=14.3x    frame= 7250 fps=343 q=-0.0 size=N/A time=00:05:02.38 bitrate=N/A speed=14.3x    frame= 7439 fps=343 q=-0.0 size=N/A time=00:05:10.26 bitrate=N/A speed=14.3x    frame= 7623 fps=343 q=-0.0 size=N/A time=00:05:17.94 bitrate=N/A speed=14.3x    frame= 7810 fps=344 q=-0.0 size=N/A time=00:05:25.74 bitrate=N/A speed=14.3x    frame= 7996 fps=344 q=-0.0 size=N/A time=00:05:33.49 bitrate=N/A speed=14.4x    frame= 8183 fps=345 q=-0.0 size=N/A time=00:05:41.29 bitrate=N/A speed=14.4x    frame= 8370 fps=345 q=-0.0 size=N/A time=00:05:49.09 bitrate=N/A speed=14.4x    frame= 8555 fps=345 q=-0.0 size=N/A time=00:05:56.81 bitrate=N/A speed=14.4x    frame= 8746 fps=346 q=-0.0 size=N/A time=00:06:04.78 bitrate=N/A speed=14.4x    frame= 8936 fps=346 q=-0.0 size=N/A time=00:06:12.70 bitrate=N/A speed=14.4x    frame= 9122 fps=347 q=-0.0 size=N/A time=00:06:20.46 bitrate=N/A speed=14.5x    frame= 9310 fps=347 q=-0.0 size=N/A time=00:06:28.30 bitrate=N/A speed=14.5x    frame= 9497 fps=347 q=-0.0 size=N/A time=00:06:36.10 bitrate=N/A speed=14.5x    frame= 9687 fps=348 q=-0.0 size=N/A time=00:06:44.02 bitrate=N/A speed=14.5x    frame= 9873 fps=348 q=-0.0 size=N/A time=00:06:51.78 bitrate=N/A speed=14.5x    frame=10063 fps=348 q=-0.0 size=N/A time=00:06:59.71 bitrate=N/A speed=14.5x    frame=10246 fps=348 q=-0.0 size=N/A time=00:07:07.34 bitrate=N/A speed=14.5x    frame=10441 fps=349 q=-0.0 size=N/A time=00:07:15.47 bitrate=N/A speed=14.5x    frame=10624 fps=349 q=-0.0 size=N/A time=00:07:23.10 bitrate=N/A speed=14.6x    frame=10810 fps=349 q=-0.0 size=N/A time=00:07:30.86 bitrate=N/A speed=14.6x    frame=10993 fps=349 q=-0.0 size=N/A time=00:07:38.49 bitrate=N/A speed=14.6x    frame=11180 fps=349 q=-0.0 size=N/A time=00:07:46.29 bitrate=N/A speed=14.6x    frame=11367 fps=350 q=-0.0 size=N/A time=00:07:54.09 bitrate=N/A speed=14.6x    frame=11556 fps=350 q=-0.0 size=N/A time=00:08:01.98 bitrate=N/A speed=14.6x    frame=11740 fps=350 q=-0.0 size=N/A time=00:08:09.65 bitrate=N/A speed=14.6x    frame=11940 fps=351 q=-0.0 size=N/A time=00:08:17.99 bitrate=N/A speed=14.6x    frame=12126 fps=351 q=-0.0 size=N/A time=00:08:25.75 bitrate=N/A speed=14.6x    frame=12313 fps=351 q=-0.0 size=N/A time=00:08:33.55 bitrate=N/A speed=14.6x    frame=12507 fps=351 q=-0.0 size=N/A time=00:08:41.64 bitrate=N/A speed=14.6x    frame=12692 fps=351 q=-0.0 size=N/A time=00:08:49.36 bitrate=N/A speed=14.7x    frame=12876 fps=352 q=-0.0 size=N/A time=00:08:57.03 bitrate=N/A speed=14.7x    frame=13066 fps=352 q=-0.0 size=N/A time=00:09:04.96 bitrate=N/A speed=14.7x    frame=13258 fps=352 q=-0.0 size=N/A time=00:09:12.96 bitrate=N/A speed=14.7x    frame=13446 fps=352 q=-0.0 size=N/A time=00:09:20.81 bitrate=N/A speed=14.7x    frame=13636 fps=352 q=-0.0 size=N/A time=00:09:28.73 bitrate=N/A speed=14.7x    frame=13814 fps=352 q=-0.0 size=N/A time=00:09:36.15 bitrate=N/A speed=14.7x    frame=14014 fps=353 q=-0.0 size=N/A time=00:09:44.50 bitrate=N/A speed=14.7x    frame=14186 fps=352 q=-0.0 size=N/A time=00:09:51.67 bitrate=N/A speed=14.7x    frame=14375 fps=353 q=-0.0 size=N/A time=00:09:59.55 bitrate=N/A speed=14.7x    frame=14556 fps=353 q=-0.0 size=N/A time=00:10:07.10 bitrate=N/A speed=14.7x    frame=14734 fps=352 q=-0.0 size=N/A time=00:10:14.53 bitrate=N/A speed=14.7x    frame=14915 fps=352 q=-0.0 size=N/A time=00:10:22.07 bitrate=N/A speed=14.7x    frame=15088 fps=352 q=-0.0 size=N/A time=00:10:29.29 bitrate=N/A speed=14.7x    frame=15254 fps=352 q=-0.0 size=N/A time=00:10:36.21 bitrate=N/A speed=14.7x    frame=15443 fps=352 q=-0.0 size=N/A time=00:10:44.10 bitrate=N/A speed=14.7x    frame=15630 fps=352 q=-0.0 size=N/A time=00:10:51.90 bitrate=N/A speed=14.7x    frame=15815 fps=352 q=-0.0 size=N/A time=00:10:59.61 bitrate=N/A speed=14.7x    frame=16006 fps=353 q=-0.0 size=N/A time=00:11:07.58 bitrate=N/A speed=14.7x    frame=16198 fps=353 q=-0.0 size=N/A time=00:11:15.59 bitrate=N/A speed=14.7x    frame=16387 fps=353 q=-0.0 size=N/A time=00:11:23.47 bitrate=N/A speed=14.7x    frame=16571 fps=353 q=-0.0 size=N/A time=00:11:31.14 bitrate=N/A speed=14.7x    frame=16759 fps=353 q=-0.0 size=N/A time=00:11:38.98 bitrate=N/A speed=14.7x    frame=16952 fps=353 q=-0.0 size=N/A time=00:11:47.03 bitrate=N/A speed=14.7x    frame=17144 fps=353 q=-0.0 size=N/A time=00:11:55.04 bitrate=N/A speed=14.7x    frame=17330 fps=354 q=-0.0 size=N/A time=00:12:02.80 bitrate=N/A speed=14.7x    frame=17515 fps=354 q=-0.0 size=N/A time=00:12:10.52 bitrate=N/A speed=14.7x    frame=17703 fps=354 q=-0.0 size=N/A time=00:12:18.36 bitrate=N/A speed=14.8x    frame=17886 fps=354 q=-0.0 size=N/A time=00:12:25.99 bitrate=N/A speed=14.8x    frame=18083 fps=354 q=-0.0 size=N/A time=00:12:34.21 bitrate=N/A speed=14.8x    frame=18257 fps=354 q=-0.0 size=N/A time=00:12:41.46 bitrate=N/A speed=14.8x    frame=18438 fps=354 q=-0.0 size=N/A time=00:12:49.01 bitrate=N/A speed=14.8x    frame=18627 fps=354 q=-0.0 size=N/A time=00:12:56.90 bitrate=N/A speed=14.8x    frame=18826 fps=354 q=-0.0 size=N/A time=00:13:05.20 bitrate=N/A speed=14.8x    frame=19011 fps=354 q=-0.0 size=N/A time=00:13:12.91 bitrate=N/A speed=14.8x    frame=19196 fps=354 q=-0.0 size=N/A time=00:13:20.63 bitrate=N/A speed=14.8x    frame=19395 fps=355 q=-0.0 size=N/A time=00:13:28.93 bitrate=N/A speed=14.8x    frame=19585 fps=355 q=-0.0 size=N/A time=00:13:36.85 bitrate=N/A speed=14.8x    frame=19774 fps=355 q=-0.0 size=N/A time=00:13:44.74 bitrate=N/A speed=14.8x    frame=19961 fps=355 q=-0.0 size=N/A time=00:13:52.54 bitrate=N/A speed=14.8x    frame=20154 fps=355 q=-0.0 size=N/A time=00:14:00.58 bitrate=N/A speed=14.8x    frame=20338 fps=355 q=-0.0 size=N/A time=00:14:08.26 bitrate=N/A speed=14.8x    frame=20521 fps=355 q=-0.0 size=N/A time=00:14:15.89 bitrate=N/A speed=14.8x    frame=20702 fps=355 q=-0.0 size=N/A time=00:14:23.44 bitrate=N/A speed=14.8x    frame=20899 fps=355 q=-0.0 size=N/A time=00:14:31.66 bitrate=N/A speed=14.8x    frame=21091 fps=355 q=-0.0 size=N/A time=00:14:39.67 bitrate=N/A speed=14.8x    frame=21278 fps=355 q=-0.0 size=N/A time=00:14:47.46 bitrate=N/A speed=14.8x    frame=21465 fps=356 q=-0.0 size=N/A time=00:14:55.26 bitrate=N/A speed=14.8x    frame=21664 fps=356 q=-0.0 size=N/A time=00:15:03.56 bitrate=N/A speed=14.8x    frame=21852 fps=356 q=-0.0 size=N/A time=00:15:11.41 bitrate=N/A speed=14.8x    frame=22039 fps=356 q=-0.0 size=N/A time=00:15:19.20 bitrate=N/A speed=14.8x    frame=22228 fps=356 q=-0.0 size=N/A time=00:15:27.09 bitrate=N/A speed=14.8x    frame=22419 fps=356 q=-0.0 size=N/A time=00:15:35.05 bitrate=N/A speed=14.9x    frame=22613 fps=356 q=-0.0 size=N/A time=00:15:43.15 bitrate=N/A speed=14.9x    frame=22800 fps=356 q=-0.0 size=N/A time=00:15:50.95 bitrate=N/A speed=14.9x    frame=22978 fps=356 q=-0.0 size=N/A time=00:15:58.37 bitrate=N/A speed=14.9x    frame=23179 fps=356 q=-0.0 size=N/A time=00:16:06.75 bitrate=N/A speed=14.9x    frame=23371 fps=357 q=-0.0 size=N/A time=00:16:14.76 bitrate=N/A speed=14.9x    frame=23559 fps=357 q=-0.0 size=N/A time=00:16:22.60 bitrate=N/A speed=14.9x    frame=23747 fps=357 q=-0.0 size=N/A time=00:16:30.44 bitrate=N/A speed=14.9x    frame=23934 fps=357 q=-0.0 size=N/A time=00:16:38.24 bitrate=N/A speed=14.9x    frame=24128 fps=357 q=-0.0 size=N/A time=00:16:46.33 bitrate=N/A speed=14.9x    frame=24321 fps=357 q=-0.0 size=N/A time=00:16:54.38 bitrate=N/A speed=14.9x    frame=24506 fps=357 q=-0.0 size=N/A time=00:17:02.10 bitrate=N/A speed=14.9x    frame=24697 fps=357 q=-0.0 size=N/A time=00:17:10.07 bitrate=N/A speed=14.9x    frame=24883 fps=357 q=-0.0 size=N/A time=00:17:17.82 bitrate=N/A speed=14.9x    frame=25078 fps=357 q=-0.0 size=N/A time=00:17:25.96 bitrate=N/A speed=14.9x    frame=25266 fps=357 q=-0.0 size=N/A time=00:17:33.80 bitrate=N/A speed=14.9x    frame=25451 fps=357 q=-0.0 size=N/A time=00:17:41.51 bitrate=N/A speed=14.9x    frame=25647 fps=358 q=-0.0 size=N/A time=00:17:49.69 bitrate=N/A speed=14.9x    frame=25831 fps=358 q=-0.0 size=N/A time=00:17:57.36 bitrate=N/A speed=14.9x    frame=26024 fps=358 q=-0.0 size=N/A time=00:18:05.41 bitrate=N/A speed=14.9x    frame=26208 fps=358 q=-0.0 size=N/A time=00:18:13.09 bitrate=N/A speed=14.9x    frame=26399 fps=358 q=-0.0 size=N/A time=00:18:21.05 bitrate=N/A speed=14.9x    frame=26594 fps=358 q=-0.0 size=N/A time=00:18:29.19 bitrate=N/A speed=14.9x    frame=26785 fps=358 q=-0.0 size=N/A time=00:18:37.15 bitrate=N/A speed=14.9x    frame=26964 fps=358 q=-0.0 size=N/A time=00:18:44.62 bitrate=N/A speed=14.9x    frame=27149 fps=358 q=-0.0 size=N/A time=00:18:52.33 bitrate=N/A speed=14.9x    frame=27337 fps=358 q=-0.0 size=N/A time=00:19:00.18 bitrate=N/A speed=14.9x    frame=27520 fps=358 q=-0.0 size=N/A time=00:19:07.81 bitrate=N/A speed=14.9x    frame=27707 fps=358 q=-0.0 size=N/A time=00:19:15.61 bitrate=N/A speed=14.9x    frame=27893 fps=358 q=-0.0 size=N/A time=00:19:23.37 bitrate=N/A speed=14.9x    frame=28085 fps=358 q=-0.0 size=N/A time=00:19:31.37 bitrate=N/A speed=14.9x    frame=28273 fps=358 q=-0.0 size=N/A time=00:19:39.21 bitrate=N/A speed=14.9x    frame=28458 fps=358 q=-0.0 size=N/A time=00:19:46.93 bitrate=N/A speed=14.9x    frame=28648 fps=358 q=-0.0 size=N/A time=00:19:54.86 bitrate=N/A speed=14.9x    frame=28822 fps=358 q=-0.0 size=N/A time=00:20:02.11 bitrate=N/A speed=14.9x    frame=29004 fps=358 q=-0.0 size=N/A time=00:20:09.70 bitrate=N/A speed=14.9x    frame=29176 fps=358 q=-0.0 size=N/A time=00:20:16.88 bitrate=N/A speed=14.9x    frame=29357 fps=358 q=-0.0 size=N/A time=00:20:24.43 bitrate=N/A speed=14.9x    frame=29525 fps=358 q=-0.0 size=N/A time=00:20:31.43 bitrate=N/A speed=14.9x    frame=29709 fps=358 q=-0.0 size=N/A time=00:20:39.11 bitrate=N/A speed=14.9x    frame=29888 fps=357 q=-0.0 size=N/A time=00:20:46.57 bitrate=N/A speed=14.9x    frame=30039 fps=357 q=-0.0 size=N/A time=00:20:52.87 bitrate=N/A speed=14.9x    frame=30220 fps=357 q=-0.0 size=N/A time=00:21:00.42 bitrate=N/A speed=14.9x    frame=30412 fps=357 q=-0.0 size=N/A time=00:21:08.43 bitrate=N/A speed=14.9x    frame=30599 fps=357 q=-0.0 size=N/A time=00:21:16.23 bitrate=N/A speed=14.9x    frame=30786 fps=357 q=-0.0 size=N/A time=00:21:24.03 bitrate=N/A speed=14.9x    frame=30973 fps=357 q=-0.0 size=N/A time=00:21:31.83 bitrate=N/A speed=14.9x    frame=31162 fps=357 q=-0.0 size=N/A time=00:21:39.71 bitrate=N/A speed=14.9x    frame=31347 fps=357 q=-0.0 size=N/A time=00:21:47.43 bitrate=N/A speed=14.9x    frame=31536 fps=357 q=-0.0 size=N/A time=00:21:55.31 bitrate=N/A speed=14.9x    frame=31720 fps=357 q=-0.0 size=N/A time=00:22:02.98 bitrate=N/A speed=14.9x    frame=31897 fps=357 q=-0.0 size=N/A time=00:22:10.37 bitrate=N/A speed=14.9x    frame=32079 fps=357 q=-0.0 size=N/A time=00:22:17.96 bitrate=N/A speed=14.9x    frame=32267 fps=357 q=-0.0 size=N/A time=00:22:25.80 bitrate=N/A speed=14.9x    frame=32453 fps=357 q=-0.0 size=N/A time=00:22:33.56 bitrate=N/A speed=14.9x    frame=32638 fps=357 q=-0.0 size=N/A time=00:22:41.27 bitrate=N/A speed=14.9x    frame=32782 fps=357 q=-0.0 size=N/A time=00:22:47.28 bitrate=N/A speed=14.9x    frame=32952 fps=357 q=-0.0 size=N/A time=00:22:54.37 bitrate=N/A speed=14.9x    frame=33131 fps=357 q=-0.0 size=N/A time=00:23:01.83 bitrate=N/A speed=14.9x    frame=33311 fps=357 q=-0.0 size=N/A time=00:23:09.34 bitrate=N/A speed=14.9x    frame=33479 fps=357 q=-0.0 size=N/A time=00:23:16.35 bitrate=N/A speed=14.9x    frame=33638 fps=356 q=-0.0 size=N/A time=00:23:22.98 bitrate=N/A speed=14.9x    frame=33778 fps=356 q=-0.0 size=N/A time=00:23:28.82 bitrate=N/A speed=14.8x    frame=33903 fps=355 q=-0.0 size=N/A time=00:23:34.03 bitrate=N/A speed=14.8x    frame=34071 fps=355 q=-0.0 size=N/A time=00:23:41.04 bitrate=N/A speed=14.8x    frame=34225 fps=355 q=-0.0 size=N/A time=00:23:47.46 bitrate=N/A speed=14.8x    frame=34365 fps=354 q=-0.0 size=N/A time=00:23:53.30 bitrate=N/A speed=14.8x    frame=34506 fps=354 q=-0.0 size=N/A time=00:23:59.18 bitrate=N/A speed=14.8x    [Parsed_ssim_16 @ 0000017dfc0cf6c0] SSIM Y:0.993633 (21.960648) U:0.993638 (21.963873) V:0.993234 (21.696778) All:0.993567 (21.916073)
[out#0/null @ 0000017deebf1d00] video:14903KiB audio:271276KiB subtitle:0KiB other streams:0KiB global headers:0KiB muxing overhead: unknown
frame=34683 fps=354 q=-0.0 Lsize=N/A time=00:24:06.57 bitrate=N/A speed=14.8x    
